<?xml version="1.0" encoding="utf-8"?>
<!-- Generator: Adobe Illustrator 16.0.3, SVG Export Plug-In . SVG Version: 6.00 Build 0)  -->
<!DOCTYPE svg PUBLIC "-//W3C//DTD SVG 1.1//EN" "http://www.w3.org/Graphics/SVG/1.1/DTD/svg11.dtd">
<svg version="1.1" id="Layer_1" xmlns="http://www.w3.org/2000/svg" xmlns:xlink="http://www.w3.org/1999/xlink" x="0px" y="0px"
	 width="1875.691px" height="579.727px" viewBox="22.154 250.154 1875.691 579.727"
	 enable-background="new 22.154 250.154 1875.691 579.727" xml:space="preserve">
<title>niras_logo_new</title>
<path id="niras" fill="#B91222" d="M294.72,681.231l-156.11-163.532H22.154v307.236h94.154l9.896-185.834l183.36,185.834h91.68
	V517.698h-96.628L294.72,681.231z M492.923,517.698h101.539v307.236H492.923V517.698z M1030.597,609.378
	c-4.947-79.273-91.68-94.153-161.059-96.628c-56.972,0-188.308,4.948-188.308,4.948v307.236h91.681l14.769-245.279
	c0,0,37.182-2.475,61.957-2.475c39.655,0,66.904,14.77,69.379,39.655c2.474,24.887-7.385,54.499-96.628,54.499v49.551l99.102,106.56
	h106.56l-79.126-111.544c2.474-2.475,86.732-24.775,81.748-106.561 M1385.133,517.661h-151.349c0,0-14.769,22.153-64.431,121.403
	c-66.904-54.499-84.258-126.352-89.206-161.059h-2.474v131.335c8.861,39.338,28.604,75.393,56.973,104.05
	c-44.566,91.717-52.025,109.07-52.025,109.07h99.102l32.197-59.483l0,0c31.156,10.602,63.73,16.452,96.628,17.354v-84.259
	c-18.53-0.817-36.864-4.146-54.499-9.896l49.551-89.206l128.825,227.963h99.102c0,0-12.296-29.76-76.764-161.243
	c-56.972-123.877-71.852-146.178-71.852-146.178 M1729.329,624.073c-32.196-2.474-49.551-9.896-49.551-24.775
	c0-19.827,24.775-27.249,76.8-27.249c52.025,0,121.403,9.896,121.403,9.896V510.24c-51.81-5.997-103.967-8.465-156.11-7.385
	c-27.25,0-158.585,0-158.585,104.05c0,99.102,128.825,101.575,183.36,104.049c19.827,0,42.129,4.948,42.129,19.828
	c2.474,24.775-37.182,27.249-96.628,27.249c-39.248-0.557-78.311-5.511-116.455-14.77v76.801c0,0,81.784,9.784,143.704,9.784
	c27.25,0,180.924,4.947,178.412-104.049c2.475-109.034-121.402-99.102-168.479-101.576 M1144.615,487.938
	c12.406-66.904,79.274-138.757,168.48-143.704v-94.08c-128.861,14.77-178.449,126.313-175.865,190.708
	C1139.705,455.63,1139.705,473.058,1144.615,487.938z"/>
</svg>
